<mxfile host="app.diagrams.net" modified="2022-10-08T06:25:00.401Z" agent="5.0 (Windows)" etag="9vWortpSXtW60GbNYNWb" version="17.2.2" type="github">
  <diagram id="JKJWpMdvQNC9LhGvfFmc" name="第 1 页">
    <mxGraphModel dx="995" dy="-1732" grid="0" gridSize="10" guides="1" tooltips="1" connect="1" arrows="1" fold="1" page="1" pageScale="1" pageWidth="827" pageHeight="1169" math="0" shadow="0">
      <root>
        <mxCell id="0" />
        <mxCell id="1" parent="0" />
        <mxCell id="AHmBcfAO9iQUcCrBusLg-1" value="" style="edgeStyle=orthogonalEdgeStyle;rounded=0;orthogonalLoop=1;jettySize=auto;html=1;" parent="1" source="AHmBcfAO9iQUcCrBusLg-2" target="AHmBcfAO9iQUcCrBusLg-12" edge="1">
          <mxGeometry relative="1" as="geometry" />
        </mxCell>
        <mxCell id="AHmBcfAO9iQUcCrBusLg-2" value="启动服务&lt;font face=&quot;Verdana&quot;&gt;startTopo.service&lt;/font&gt;" style="rounded=1;whiteSpace=wrap;html=1;fillColor=#dae8fc;strokeColor=#6c8ebf;" parent="1" vertex="1">
          <mxGeometry x="146" y="2567" width="140" height="38" as="geometry" />
        </mxCell>
        <mxCell id="AHmBcfAO9iQUcCrBusLg-3" style="edgeStyle=orthogonalEdgeStyle;rounded=0;orthogonalLoop=1;jettySize=auto;html=1;exitX=0.5;exitY=1;exitDx=0;exitDy=0;exitPerimeter=0;entryX=0.5;entryY=0;entryDx=0;entryDy=0;" parent="1" target="AHmBcfAO9iQUcCrBusLg-2" edge="1">
          <mxGeometry relative="1" as="geometry">
            <mxPoint x="216" y="2542" as="sourcePoint" />
          </mxGeometry>
        </mxCell>
        <mxCell id="AHmBcfAO9iQUcCrBusLg-6" value="网络拓扑更新模块" style="shape=cylinder3;whiteSpace=wrap;html=1;boundedLbl=1;backgroundOutline=1;size=11;fillColor=#f5f5f5;strokeColor=#666666;fontColor=#333333;" parent="1" vertex="1">
          <mxGeometry x="160.91000000000003" y="2490" width="111.64" height="53" as="geometry" />
        </mxCell>
        <mxCell id="AHmBcfAO9iQUcCrBusLg-43" value="" style="edgeStyle=orthogonalEdgeStyle;rounded=0;orthogonalLoop=1;jettySize=auto;html=1;fontFamily=Verdana;" parent="1" source="AHmBcfAO9iQUcCrBusLg-8" target="AHmBcfAO9iQUcCrBusLg-40" edge="1">
          <mxGeometry relative="1" as="geometry" />
        </mxCell>
        <mxCell id="AHmBcfAO9iQUcCrBusLg-8" value="&lt;font face=&quot;Verdana&quot;&gt;载入json文件读取上次更新后的网桥节点与端口&lt;/font&gt;" style="rounded=1;whiteSpace=wrap;html=1;fillColor=#e1d5e7;strokeColor=#9673a6;" parent="1" vertex="1">
          <mxGeometry x="331.5" y="2740" width="163.5" height="40" as="geometry" />
        </mxCell>
        <mxCell id="AHmBcfAO9iQUcCrBusLg-12" value="&lt;font face=&quot;Verdana&quot;&gt;自动执行 topo.sh&lt;/font&gt;" style="ellipse;whiteSpace=wrap;html=1;fillColor=#fff2cc;strokeColor=#d6b656;" parent="1" vertex="1">
          <mxGeometry x="139.5" y="2639" width="153" height="46" as="geometry" />
        </mxCell>
        <mxCell id="AHmBcfAO9iQUcCrBusLg-13" value="&lt;font face=&quot;Verdana&quot;&gt;命令：systemctl startTopo.service&lt;/font&gt;" style="text;html=1;align=center;verticalAlign=middle;resizable=0;points=[];autosize=1;strokeColor=none;fillColor=none;" parent="1" vertex="1">
          <mxGeometry x="292.5" y="2571" width="230" height="30" as="geometry" />
        </mxCell>
        <mxCell id="AHmBcfAO9iQUcCrBusLg-46" value="" style="edgeStyle=orthogonalEdgeStyle;rounded=0;orthogonalLoop=1;jettySize=auto;html=1;fontFamily=Verdana;" parent="1" source="AHmBcfAO9iQUcCrBusLg-17" target="AHmBcfAO9iQUcCrBusLg-45" edge="1">
          <mxGeometry relative="1" as="geometry" />
        </mxCell>
        <mxCell id="AHmBcfAO9iQUcCrBusLg-17" value="init(), init_port()，初始化操作，删除更新后不再存在的网桥与之前的端口" style="rounded=1;whiteSpace=wrap;html=1;fillColor=#dae8fc;strokeColor=#6c8ebf;" parent="1" vertex="1">
          <mxGeometry x="100.72999999999999" y="2814" width="230.77" height="40" as="geometry" />
        </mxCell>
        <mxCell id="AHmBcfAO9iQUcCrBusLg-18" value="&lt;font face=&quot;Verdana&quot;&gt;LastTime_br.json，&lt;/font&gt;" style="text;whiteSpace=wrap;html=1;" parent="1" vertex="1">
          <mxGeometry x="312.59000000000003" y="3012" width="280" height="28" as="geometry" />
        </mxCell>
        <mxCell id="AHmBcfAO9iQUcCrBusLg-19" value="&lt;font face=&quot;Verdana&quot;&gt;json文件路径位于config.py&lt;/font&gt;" style="text;whiteSpace=wrap;html=1;" parent="1" vertex="1">
          <mxGeometry x="88.44" y="2706" width="191.04" height="40" as="geometry" />
        </mxCell>
        <mxCell id="AHmBcfAO9iQUcCrBusLg-20" style="edgeStyle=orthogonalEdgeStyle;rounded=0;orthogonalLoop=1;jettySize=auto;html=1;exitX=0.5;exitY=1;exitDx=0;exitDy=0;" parent="1" source="AHmBcfAO9iQUcCrBusLg-21" target="AHmBcfAO9iQUcCrBusLg-50" edge="1">
          <mxGeometry relative="1" as="geometry">
            <mxPoint x="269.72" y="3118" as="targetPoint" />
          </mxGeometry>
        </mxCell>
        <mxCell id="AHmBcfAO9iQUcCrBusLg-21" value="同时记录当前节点与端口，写入json文件" style="rounded=1;whiteSpace=wrap;html=1;fillColor=#dae8fc;strokeColor=#6c8ebf;" parent="1" vertex="1">
          <mxGeometry x="359" y="2972" width="151" height="38" as="geometry" />
        </mxCell>
        <mxCell id="AHmBcfAO9iQUcCrBusLg-22" style="edgeStyle=orthogonalEdgeStyle;rounded=0;orthogonalLoop=1;jettySize=auto;html=1;exitX=0.5;exitY=1;exitDx=0;exitDy=0;entryX=0.5;entryY=0;entryDx=0;entryDy=0;" parent="1" source="AHmBcfAO9iQUcCrBusLg-25" target="AHmBcfAO9iQUcCrBusLg-27" edge="1">
          <mxGeometry relative="1" as="geometry" />
        </mxCell>
        <mxCell id="AHmBcfAO9iQUcCrBusLg-23" style="edgeStyle=orthogonalEdgeStyle;rounded=0;orthogonalLoop=1;jettySize=auto;html=1;exitX=0.5;exitY=1;exitDx=0;exitDy=0;" parent="1" source="AHmBcfAO9iQUcCrBusLg-25" target="AHmBcfAO9iQUcCrBusLg-28" edge="1">
          <mxGeometry relative="1" as="geometry" />
        </mxCell>
        <mxCell id="AHmBcfAO9iQUcCrBusLg-24" style="edgeStyle=orthogonalEdgeStyle;rounded=0;orthogonalLoop=1;jettySize=auto;html=1;exitX=0.5;exitY=1;exitDx=0;exitDy=0;" parent="1" source="AHmBcfAO9iQUcCrBusLg-25" target="AHmBcfAO9iQUcCrBusLg-30" edge="1">
          <mxGeometry relative="1" as="geometry" />
        </mxCell>
        <mxCell id="AHmBcfAO9iQUcCrBusLg-25" value="提前启动用于DNN计算的容器" style="rounded=1;whiteSpace=wrap;html=1;fillColor=#dae8fc;strokeColor=#6c8ebf;" parent="1" vertex="1">
          <mxGeometry x="888" y="2513.5" width="121.5" height="41" as="geometry" />
        </mxCell>
        <mxCell id="AHmBcfAO9iQUcCrBusLg-26" value="&lt;div&gt;PORT_LIST = [[&#39;5100&#39;,&#39;5110&#39;]&lt;/div&gt;&lt;div&gt;&lt;br&gt;&lt;/div&gt;&lt;div&gt;‘5100’端口用于接收app的任务请求（options）&lt;/div&gt;&lt;div&gt;‘5110&#39;用于和终端交互&lt;/div&gt;" style="text;whiteSpace=wrap;html=1;" parent="1" vertex="1">
          <mxGeometry x="1046" y="2509.5" width="285.25" height="58" as="geometry" />
        </mxCell>
        <mxCell id="AHmBcfAO9iQUcCrBusLg-27" value="run_edge_only.sh" style="rounded=1;whiteSpace=wrap;html=1;fillColor=#e1d5e7;strokeColor=#9673a6;" parent="1" vertex="1">
          <mxGeometry x="820" y="2596.5" width="110" height="31" as="geometry" />
        </mxCell>
        <mxCell id="AHmBcfAO9iQUcCrBusLg-28" value="run_edge_infer.sh" style="rounded=1;whiteSpace=wrap;html=1;fillColor=#e1d5e7;strokeColor=#9673a6;" parent="1" vertex="1">
          <mxGeometry x="981.75" y="2598.5" width="110" height="31" as="geometry" />
        </mxCell>
        <mxCell id="AHmBcfAO9iQUcCrBusLg-29" style="edgeStyle=orthogonalEdgeStyle;rounded=0;orthogonalLoop=1;jettySize=auto;html=1;exitX=0.5;exitY=1;exitDx=0;exitDy=0;entryX=0.5;entryY=0;entryDx=0;entryDy=0;" parent="1" source="AHmBcfAO9iQUcCrBusLg-30" target="AHmBcfAO9iQUcCrBusLg-34" edge="1">
          <mxGeometry relative="1" as="geometry" />
        </mxCell>
        <mxCell id="AHmBcfAO9iQUcCrBusLg-30" value="启动后端容器,运行app.py" style="rounded=1;whiteSpace=wrap;html=1;fillColor=#dae8fc;strokeColor=#6c8ebf;" parent="1" vertex="1">
          <mxGeometry x="898.62" y="2690.5" width="100.25" height="38" as="geometry" />
        </mxCell>
        <mxCell id="AHmBcfAO9iQUcCrBusLg-31" value="Online-Test" style="text;whiteSpace=wrap;html=1;" parent="1" vertex="1">
          <mxGeometry x="1014.5" y="2785.5" width="74" height="27" as="geometry" />
        </mxCell>
        <mxCell id="AHmBcfAO9iQUcCrBusLg-32" value="&lt;div&gt;ALLOWED_MODE =&lt;/div&gt;&lt;div&gt;&amp;nbsp;[&#39;Edge-Only&#39;, &#39;Device-only&#39;, &#39;Synergy&#39;, &#39;Online-Test&#39;]&lt;/div&gt;" style="text;whiteSpace=wrap;html=1;" parent="1" vertex="1">
          <mxGeometry x="980" y="2642.5" width="295.5" height="52" as="geometry" />
        </mxCell>
        <mxCell id="AHmBcfAO9iQUcCrBusLg-33" value="socket = context.socket(zmq.REP)" style="text;html=1;align=center;verticalAlign=middle;resizable=0;points=[];autosize=1;strokeColor=none;fillColor=none;" parent="1" vertex="1">
          <mxGeometry x="961.5" y="2740.5" width="194" height="18" as="geometry" />
        </mxCell>
        <mxCell id="AHmBcfAO9iQUcCrBusLg-34" value="Classifier()" style="rounded=1;whiteSpace=wrap;html=1;fillColor=#dae8fc;strokeColor=#6c8ebf;" parent="1" vertex="1">
          <mxGeometry x="905.75" y="2776.5" width="87.5" height="38" as="geometry" />
        </mxCell>
        <mxCell id="AHmBcfAO9iQUcCrBusLg-35" value="" style="html=1;shadow=0;dashed=0;align=center;verticalAlign=middle;shape=mxgraph.arrows2.bendArrow;dy=4.05;dx=19.24;notch=0;arrowHead=21.95;rounded=1;rotation=-90;fillColor=#f5f5f5;fontColor=#333333;strokeColor=#666666;" parent="1" vertex="1">
          <mxGeometry x="853" y="2663.5" width="43" height="35.11" as="geometry" />
        </mxCell>
        <mxCell id="AHmBcfAO9iQUcCrBusLg-36" value="mode_opt = request.form.get(&quot;mode_opt&quot;)" style="text;whiteSpace=wrap;html=1;" parent="1" vertex="1">
          <mxGeometry x="1012" y="2694.5" width="244" height="28" as="geometry" />
        </mxCell>
        <mxCell id="AHmBcfAO9iQUcCrBusLg-37" value="" style="edgeStyle=orthogonalEdgeStyle;rounded=0;orthogonalLoop=1;jettySize=auto;html=1;exitX=1;exitY=0.5;exitDx=0;exitDy=0;" parent="1" source="AHmBcfAO9iQUcCrBusLg-12" target="AHmBcfAO9iQUcCrBusLg-38" edge="1">
          <mxGeometry relative="1" as="geometry">
            <mxPoint x="215.48000000000002" y="2695.11" as="sourcePoint" />
          </mxGeometry>
        </mxCell>
        <mxCell id="AHmBcfAO9iQUcCrBusLg-42" value="" style="edgeStyle=orthogonalEdgeStyle;rounded=0;orthogonalLoop=1;jettySize=auto;html=1;fontFamily=Verdana;exitX=0.5;exitY=1;exitDx=0;exitDy=0;" parent="1" source="AHmBcfAO9iQUcCrBusLg-38" target="AHmBcfAO9iQUcCrBusLg-8" edge="1">
          <mxGeometry relative="1" as="geometry" />
        </mxCell>
        <mxCell id="AHmBcfAO9iQUcCrBusLg-38" value="&lt;font face=&quot;Verdana&quot;&gt;&amp;nbsp; 每2秒执行一次 topo.py&amp;nbsp; 脚本更新ovs拓扑&lt;/font&gt;" style="ellipse;whiteSpace=wrap;html=1;fillColor=#fff2cc;strokeColor=#d6b656;" parent="1" vertex="1">
          <mxGeometry x="338" y="2629" width="150.5" height="66" as="geometry" />
        </mxCell>
        <mxCell id="AHmBcfAO9iQUcCrBusLg-41" value="" style="edgeStyle=orthogonalEdgeStyle;rounded=0;orthogonalLoop=1;jettySize=auto;html=1;fontFamily=Verdana;" parent="1" source="AHmBcfAO9iQUcCrBusLg-40" target="AHmBcfAO9iQUcCrBusLg-17" edge="1">
          <mxGeometry relative="1" as="geometry" />
        </mxCell>
        <mxCell id="AHmBcfAO9iQUcCrBusLg-40" value="&lt;font face=&quot;Verdana&quot;&gt;载入nodes.json与edges.json读取当前的网桥节点与端口&lt;/font&gt;" style="rounded=1;whiteSpace=wrap;html=1;fillColor=#e1d5e7;strokeColor=#9673a6;" parent="1" vertex="1">
          <mxGeometry x="120.86" y="2735" width="191.73" height="50" as="geometry" />
        </mxCell>
        <mxCell id="AHmBcfAO9iQUcCrBusLg-44" value="&lt;font face=&quot;Verdana&quot;&gt;即 bridge，port&lt;/font&gt;" style="text;whiteSpace=wrap;html=1;" parent="1" vertex="1">
          <mxGeometry x="368.48" y="2781" width="191.04" height="40" as="geometry" />
        </mxCell>
        <mxCell id="AHmBcfAO9iQUcCrBusLg-48" value="" style="edgeStyle=orthogonalEdgeStyle;rounded=0;orthogonalLoop=1;jettySize=auto;html=1;fontFamily=Verdana;" parent="1" source="AHmBcfAO9iQUcCrBusLg-45" target="AHmBcfAO9iQUcCrBusLg-47" edge="1">
          <mxGeometry relative="1" as="geometry" />
        </mxCell>
        <mxCell id="AHmBcfAO9iQUcCrBusLg-45" value="根据&lt;font face=&quot;Verdana&quot;&gt;nodes.json数据依次创建网桥&lt;/font&gt;" style="rounded=1;whiteSpace=wrap;html=1;fillColor=#dae8fc;strokeColor=#6c8ebf;" parent="1" vertex="1">
          <mxGeometry x="129.23" y="2877" width="173.53" height="40" as="geometry" />
        </mxCell>
        <mxCell id="AHmBcfAO9iQUcCrBusLg-53" value="" style="edgeStyle=orthogonalEdgeStyle;rounded=0;orthogonalLoop=1;jettySize=auto;html=1;fontFamily=Verdana;" parent="1" source="AHmBcfAO9iQUcCrBusLg-47" target="AHmBcfAO9iQUcCrBusLg-21" edge="1">
          <mxGeometry relative="1" as="geometry" />
        </mxCell>
        <mxCell id="AHmBcfAO9iQUcCrBusLg-47" value="根据&lt;font face=&quot;Verdana&quot;&gt;edges.json数据依次创建相应端口与网桥连接&lt;/font&gt;" style="rounded=1;whiteSpace=wrap;html=1;fillColor=#dae8fc;strokeColor=#6c8ebf;" parent="1" vertex="1">
          <mxGeometry x="129.23" y="2970" width="173.53" height="40" as="geometry" />
        </mxCell>
        <mxCell id="AHmBcfAO9iQUcCrBusLg-49" value="设置bridge id，根据控制器ip设置连接controller" style="text;html=1;align=center;verticalAlign=middle;resizable=0;points=[];autosize=1;strokeColor=none;fillColor=none;fontFamily=Verdana;" parent="1" vertex="1">
          <mxGeometry x="220" y="2923" width="290" height="30" as="geometry" />
        </mxCell>
        <mxCell id="AHmBcfAO9iQUcCrBusLg-50" value="结束" style="shape=parallelogram;perimeter=parallelogramPerimeter;whiteSpace=wrap;html=1;fixedSize=1;fontFamily=Verdana;size=16.25;fillColor=#f5f5f5;fontColor=#333333;strokeColor=#666666;" parent="1" vertex="1">
          <mxGeometry x="396.38" y="3060" width="76.25" height="30" as="geometry" />
        </mxCell>
        <mxCell id="AHmBcfAO9iQUcCrBusLg-54" value="" style="rounded=1;whiteSpace=wrap;html=1;fontFamily=Verdana;fillColor=none;dashed=1;arcSize=3;" parent="1" vertex="1">
          <mxGeometry x="82.02" y="2706" width="457.98" height="394" as="geometry" />
        </mxCell>
        <mxCell id="AHmBcfAO9iQUcCrBusLg-55" value="&lt;font face=&quot;Verdana&quot;&gt;LastTime_port.json&lt;/font&gt;" style="text;whiteSpace=wrap;html=1;fontFamily=Verdana;" parent="1" vertex="1">
          <mxGeometry x="302.76" y="3030" width="150" height="40" as="geometry" />
        </mxCell>
        <mxCell id="AHmBcfAO9iQUcCrBusLg-57" value="&lt;font style=&quot;font-size: 15px;&quot; face=&quot;Verdana&quot;&gt;topo.py&lt;/font&gt;" style="text;whiteSpace=wrap;html=1;fontFamily=Verdana;" parent="1" vertex="1">
          <mxGeometry x="550" y="2870" width="80" height="40" as="geometry" />
        </mxCell>
        <mxCell id="b5e1SDt4Bzy_8SpqUsYr-17" value="" style="edgeStyle=orthogonalEdgeStyle;rounded=0;orthogonalLoop=1;jettySize=auto;html=1;" edge="1" parent="1" source="b5e1SDt4Bzy_8SpqUsYr-2" target="b5e1SDt4Bzy_8SpqUsYr-5">
          <mxGeometry relative="1" as="geometry" />
        </mxCell>
        <mxCell id="b5e1SDt4Bzy_8SpqUsYr-2" value="启动服务&lt;font face=&quot;Verdana&quot;&gt;startTopo.service&lt;/font&gt;" style="rounded=1;whiteSpace=wrap;html=1;fillColor=#dae8fc;strokeColor=#6c8ebf;" vertex="1" parent="1">
          <mxGeometry x="1107" y="3138.5" width="140" height="38" as="geometry" />
        </mxCell>
        <mxCell id="b5e1SDt4Bzy_8SpqUsYr-16" value="" style="edgeStyle=orthogonalEdgeStyle;rounded=0;orthogonalLoop=1;jettySize=auto;html=1;" edge="1" parent="1" source="b5e1SDt4Bzy_8SpqUsYr-4" target="b5e1SDt4Bzy_8SpqUsYr-2">
          <mxGeometry relative="1" as="geometry" />
        </mxCell>
        <mxCell id="b5e1SDt4Bzy_8SpqUsYr-4" value="网络拓扑更新模块" style="shape=cylinder3;whiteSpace=wrap;html=1;boundedLbl=1;backgroundOutline=1;size=11;fillColor=#f5f5f5;strokeColor=#666666;fontColor=#333333;" vertex="1" parent="1">
          <mxGeometry x="950" y="3131" width="111.64" height="53" as="geometry" />
        </mxCell>
        <mxCell id="b5e1SDt4Bzy_8SpqUsYr-18" value="" style="edgeStyle=orthogonalEdgeStyle;rounded=0;orthogonalLoop=1;jettySize=auto;html=1;" edge="1" parent="1" source="b5e1SDt4Bzy_8SpqUsYr-5" target="b5e1SDt4Bzy_8SpqUsYr-13">
          <mxGeometry relative="1" as="geometry" />
        </mxCell>
        <mxCell id="b5e1SDt4Bzy_8SpqUsYr-20" value="" style="edgeStyle=orthogonalEdgeStyle;rounded=0;orthogonalLoop=1;jettySize=auto;html=1;" edge="1" parent="1" source="b5e1SDt4Bzy_8SpqUsYr-5" target="b5e1SDt4Bzy_8SpqUsYr-10">
          <mxGeometry relative="1" as="geometry" />
        </mxCell>
        <mxCell id="b5e1SDt4Bzy_8SpqUsYr-5" value="&lt;font face=&quot;Verdana&quot;&gt;&amp;nbsp; 每2秒执行一次python脚本读取 json文件，更新ovs拓扑&lt;/font&gt; " style="ellipse;whiteSpace=wrap;html=1;fillColor=#fff2cc;strokeColor=#d6b656;" vertex="1" parent="1">
          <mxGeometry x="1079.75" y="3026" width="194.5" height="73" as="geometry" />
        </mxCell>
        <mxCell id="b5e1SDt4Bzy_8SpqUsYr-6" value="探测OVS网桥及端口情况" style="text;html=1;align=center;verticalAlign=middle;resizable=0;points=[];autosize=1;strokeColor=none;fillColor=none;" vertex="1" parent="1">
          <mxGeometry x="1395" y="2972" width="143" height="18" as="geometry" />
        </mxCell>
        <mxCell id="b5e1SDt4Bzy_8SpqUsYr-23" style="edgeStyle=orthogonalEdgeStyle;rounded=0;orthogonalLoop=1;jettySize=auto;html=1;entryX=0.5;entryY=0;entryDx=0;entryDy=0;entryPerimeter=0;" edge="1" parent="1" source="b5e1SDt4Bzy_8SpqUsYr-9" target="b5e1SDt4Bzy_8SpqUsYr-10">
          <mxGeometry relative="1" as="geometry" />
        </mxCell>
        <mxCell id="b5e1SDt4Bzy_8SpqUsYr-26" style="edgeStyle=orthogonalEdgeStyle;rounded=0;orthogonalLoop=1;jettySize=auto;html=1;exitX=0;exitY=0.5;exitDx=0;exitDy=0;exitPerimeter=0;" edge="1" parent="1" source="b5e1SDt4Bzy_8SpqUsYr-9" target="b5e1SDt4Bzy_8SpqUsYr-11">
          <mxGeometry relative="1" as="geometry" />
        </mxCell>
        <mxCell id="b5e1SDt4Bzy_8SpqUsYr-9" value="ONOS控制器" style="shape=cylinder3;whiteSpace=wrap;html=1;boundedLbl=1;backgroundOutline=1;size=11;fillColor=#f5f5f5;strokeColor=#666666;fontColor=#333333;" vertex="1" parent="1">
          <mxGeometry x="1205.0000000000002" y="2917" width="111.64" height="53" as="geometry" />
        </mxCell>
        <mxCell id="b5e1SDt4Bzy_8SpqUsYr-21" value="" style="edgeStyle=orthogonalEdgeStyle;rounded=0;orthogonalLoop=1;jettySize=auto;html=1;" edge="1" parent="1" source="b5e1SDt4Bzy_8SpqUsYr-10" target="b5e1SDt4Bzy_8SpqUsYr-19">
          <mxGeometry relative="1" as="geometry" />
        </mxCell>
        <mxCell id="b5e1SDt4Bzy_8SpqUsYr-10" value="OVS" style="shape=cylinder3;whiteSpace=wrap;html=1;boundedLbl=1;backgroundOutline=1;size=11;fillColor=#f5f5f5;strokeColor=#666666;fontColor=#333333;" vertex="1" parent="1">
          <mxGeometry x="1325.0000000000002" y="3036" width="111.64" height="53" as="geometry" />
        </mxCell>
        <mxCell id="b5e1SDt4Bzy_8SpqUsYr-14" value="" style="edgeStyle=orthogonalEdgeStyle;rounded=0;orthogonalLoop=1;jettySize=auto;html=1;" edge="1" parent="1" source="b5e1SDt4Bzy_8SpqUsYr-11" target="b5e1SDt4Bzy_8SpqUsYr-13">
          <mxGeometry relative="1" as="geometry" />
        </mxCell>
        <mxCell id="b5e1SDt4Bzy_8SpqUsYr-11" value="拓扑管理页面" style="shape=cylinder3;whiteSpace=wrap;html=1;boundedLbl=1;backgroundOutline=1;size=11;fillColor=#f5f5f5;strokeColor=#666666;fontColor=#333333;" vertex="1" parent="1">
          <mxGeometry x="930.0000000000002" y="2917" width="111.64" height="53" as="geometry" />
        </mxCell>
        <mxCell id="b5e1SDt4Bzy_8SpqUsYr-12" value="OpenvSwitch" style="text;html=1;align=center;verticalAlign=middle;resizable=0;points=[];autosize=1;strokeColor=none;fillColor=none;" vertex="1" parent="1">
          <mxGeometry x="1340.32" y="3106" width="81" height="18" as="geometry" />
        </mxCell>
        <mxCell id="b5e1SDt4Bzy_8SpqUsYr-13" value="Json文件" style="shape=note;whiteSpace=wrap;html=1;backgroundOutline=1;darkOpacity=0.05;fillColor=#fff2cc;strokeColor=#d6b656;size=18;" vertex="1" parent="1">
          <mxGeometry x="956.8199999999999" y="3025" width="58" height="75" as="geometry" />
        </mxCell>
        <mxCell id="b5e1SDt4Bzy_8SpqUsYr-15" value="&lt;font face=&quot;Verdana&quot;&gt;提交对拓扑结构的更改&lt;br&gt;&lt;/font&gt;" style="text;html=1;align=center;verticalAlign=middle;resizable=0;points=[];autosize=1;strokeColor=none;fillColor=none;" vertex="1" parent="1">
          <mxGeometry x="853" y="2983" width="130" height="19" as="geometry" />
        </mxCell>
        <mxCell id="b5e1SDt4Bzy_8SpqUsYr-25" value="" style="edgeStyle=orthogonalEdgeStyle;rounded=0;orthogonalLoop=1;jettySize=auto;html=1;" edge="1" parent="1" source="b5e1SDt4Bzy_8SpqUsYr-19" target="b5e1SDt4Bzy_8SpqUsYr-24">
          <mxGeometry relative="1" as="geometry" />
        </mxCell>
        <mxCell id="b5e1SDt4Bzy_8SpqUsYr-19" value="通过ovs-vsctl命令更改虚拟网桥节点" style="rounded=1;whiteSpace=wrap;html=1;fillColor=#dae8fc;strokeColor=#6c8ebf;" vertex="1" parent="1">
          <mxGeometry x="1475" y="3043.5" width="140" height="38" as="geometry" />
        </mxCell>
        <mxCell id="b5e1SDt4Bzy_8SpqUsYr-24" value="通过ovs-vsctl命令设置网桥连接onos控制器" style="rounded=1;whiteSpace=wrap;html=1;fillColor=#dae8fc;strokeColor=#6c8ebf;" vertex="1" parent="1">
          <mxGeometry x="1475" y="3115" width="140" height="38" as="geometry" />
        </mxCell>
        <mxCell id="b5e1SDt4Bzy_8SpqUsYr-27" value="提供网络拓扑详细信息" style="text;html=1;align=center;verticalAlign=middle;resizable=0;points=[];autosize=1;strokeColor=none;fillColor=none;" vertex="1" parent="1">
          <mxGeometry x="1066" y="2914" width="130" height="18" as="geometry" />
        </mxCell>
      </root>
    </mxGraphModel>
  </diagram>
</mxfile>
